<?xml version="1.0" encoding="utf-8"?>
<!-- Generator: Adobe Illustrator 26.2.1, SVG Export Plug-In . SVG Version: 6.00 Build 0)  -->
<svg version="1.1" id="Calque_1" xmlns="http://www.w3.org/2000/svg" xmlns:xlink="http://www.w3.org/1999/xlink" x="0px" y="0px"
	 viewBox="0 0 210 62" style="enable-background:new 0 0 210 62;" xml:space="preserve">
<style type="text/css">
	.st0{fill:#B40F69;}
	.st1{fill:#B40F69;stroke:#B40F69;stroke-width:0.2827;stroke-miterlimit:10;}
	.st2{fill:#FFFFFF;}
</style>
<g>
	<g>
		<polygon class="st0" points="139.1,18.7 136.3,18.7 138.5,24.7 135.1,24.7 134.4,26.8 139.2,26.8 140.5,30.3 143.3,30.3 		"/>
		<polygon class="st0" points="164.8,18.7 163.8,21.3 168.8,21.3 168.8,26.5 171.6,25.5 171.6,18.7 171.6,18.7 		"/>
		<polygon class="st0" points="142.1,18.7 153.1,18.7 152.1,21.3 148.2,21.3 148.2,30.3 145.4,30.3 145.4,21.3 142.1,21.3 		"/>
		<g>
			<g>
				<g>
					<g>
						<path class="st0" d="M168.7,34.4l0.8-2.8h0.8l0.8,2.8h-0.6l-0.2-0.6h-0.8l-0.2,0.6H168.7z M169.9,32.2L169.9,32.2l-0.3,1.2
							h0.6L169.9,32.2z"/>
					</g>
				</g>
				<g>
					<g>
						<path class="st0" d="M171.7,31.6h0.4v1.8c0,0.6,0.2,0.8,0.5,0.8c0.3,0,0.5-0.2,0.5-0.8v-1.8h0.4v1.8c0,0.8-0.3,1.1-0.9,1.1
							c-0.6,0-0.9-0.3-0.9-1.1V31.6z"/>
					</g>
				</g>
				<g>
					<g>
						<path class="st0" d="M176,31.6v0.3h-0.7v2.5h-0.4v-2.5h-0.7v-0.3H176z"/>
					</g>
				</g>
				<g>
					<g>
						<path class="st0" d="M176.6,33.4v-0.9c0-0.6,0.3-0.9,0.9-0.9c0.6,0,0.9,0.4,0.9,0.9v0.9c0,0.8-0.3,1.1-0.9,1.1
							C176.9,34.5,176.6,34.2,176.6,33.4z M178,33.4v-1c0-0.6-0.4-0.6-0.5-0.6c-0.1,0-0.5,0-0.5,0.6v1c0,0.6,0.2,0.8,0.5,0.8
							C177.9,34.2,178,34,178,33.4z"/>
					</g>
				</g>
				<g>
					<g>
						<path class="st0" d="M179.7,33.1v1.3h-0.4v-2.8h1c0.5,0,0.7,0.4,0.7,0.7c0,0.3-0.2,0.6-0.5,0.6v0c0.3,0.1,0.4,0.2,0.5,0.7
							c0,0.1,0,0.6,0.1,0.7h-0.4c-0.1-0.2-0.1-0.6-0.1-0.9c0-0.3-0.3-0.4-0.4-0.4H179.7z M179.7,32.8h0.5c0.3,0,0.4-0.2,0.4-0.5
							c0-0.2-0.1-0.4-0.4-0.4h-0.5V32.8z"/>
					</g>
				</g>
				<g>
					<g>
						<path class="st0" d="M182.2,34.4h-0.4v-2.8h0.4V34.4z"/>
					</g>
				</g>
				<g>
					<g>
						<path class="st0" d="M183.5,33.6L183.5,33.6c0,0.5,0.2,0.6,0.5,0.6c0.3,0,0.5-0.1,0.5-0.5c0-0.6-1.3-0.6-1.3-1.4
							c0-0.5,0.4-0.8,0.8-0.8c0.5,0,0.8,0.3,0.8,0.8h-0.4c0-0.3-0.1-0.5-0.4-0.5c-0.2,0-0.4,0.1-0.4,0.4c0,0.6,1.3,0.5,1.3,1.4
							c0,0.6-0.4,0.8-0.9,0.8c-0.8,0-0.8-0.6-0.8-0.9H183.5z"/>
					</g>
				</g>
				<g>
					<g>
						<path class="st0" d="M185.7,34.4v-2.8h1.5v0.3H186v0.9h1v0.3h-1v1h1.1v0.3H185.7z"/>
					</g>
				</g>
			</g>
		</g>
		<g>
			<g>
				<g>
					<g>
						<path class="st0" d="M170.7,36.7v0.5H170v2.4h-0.6v-2.4h-0.7v-0.5H170.7z"/>
					</g>
				</g>
				<g>
					<g>
						<path class="st0" d="M171.3,38.5v-0.9c0-0.6,0.3-0.9,0.9-0.9c0.6,0,0.9,0.4,0.9,0.9v0.9c0,0.8-0.3,1.1-0.9,1.1
							C171.6,39.6,171.3,39.3,171.3,38.5z M172.7,38.5v-1c0-0.6-0.4-0.6-0.5-0.6c-0.1,0-0.5,0-0.5,0.6v1c0,0.6,0.2,0.8,0.5,0.8
							C172.5,39.3,172.7,39.1,172.7,38.5z"/>
					</g>
				</g>
				<g>
					<g>
						<path class="st0" d="M174,36.7h0.4v1.8c0,0.6,0.2,0.8,0.5,0.8c0.3,0,0.5-0.2,0.5-0.8v-1.8h0.4v1.8c0,0.8-0.3,1.1-0.9,1.1
							c-0.6,0-0.9-0.3-0.9-1.1V36.7z"/>
					</g>
				</g>
				<g>
					<g>
						<path class="st0" d="M178.3,36.7V37h-0.7v2.5h-0.4V37h-0.7v-0.3H178.3z"/>
					</g>
				</g>
				<g>
					<g>
						<path class="st0" d="M178.9,39.5v-2.8h1.5V37h-1.1v0.9h1v0.3h-1v1h1.1v0.3H178.9z"/>
					</g>
				</g>
			</g>
		</g>
		<g>
			<g>
				<g>
					<g>
						<path class="st0" d="M160.2,43.3c0-0.7,0-1.5,1-1.5c0.6,0,0.8,0.3,0.8,0.9h-0.6c0-0.4-0.1-0.5-0.2-0.5c-0.3,0-0.4,0.3-0.4,1
							c0,0.7,0,1,0.4,1c0.3,0,0.3-0.4,0.3-0.6h0.6c0,0.8-0.3,1-0.9,1C160.2,44.7,160.2,44,160.2,43.3z"/>
					</g>
				</g>
				<g>
					<g>
						<path class="st0" d="M163.1,43.4v1.3h-0.4v-2.8h1c0.5,0,0.7,0.4,0.7,0.7c0,0.3-0.2,0.6-0.5,0.6v0c0.3,0.1,0.4,0.2,0.5,0.7
							c0,0.1,0,0.6,0.1,0.7h-0.4c-0.1-0.2-0.1-0.6-0.1-0.9c0-0.3-0.3-0.4-0.4-0.4H163.1z M163.1,43.1h0.5c0.3,0,0.4-0.2,0.4-0.5
							c0-0.2-0.1-0.4-0.4-0.4h-0.5V43.1z"/>
					</g>
				</g>
				<g>
					<g>
						<path class="st0" d="M165.2,44.7v-2.8h1.5v0.3h-1.1v0.9h1v0.3h-1v1h1.1v0.3H165.2z M166.3,41l-0.5,0.6h-0.3l0.3-0.6H166.3z"/>
					</g>
				</g>
				<g>
					<g>
						<path class="st0" d="M168.1,41.8h0.5l0.9,2.8h-0.4l-0.2-0.7h-1.1l-0.2,0.7h-0.4L168.1,41.8z M168.3,42.2L168.3,42.2l-0.4,1.5
							h0.9L168.3,42.2z"/>
					</g>
				</g>
				<g>
					<g>
						<path class="st0" d="M171.4,41.8v0.3h-0.7v2.5h-0.4v-2.5h-0.7v-0.3H171.4z"/>
					</g>
				</g>
				<g>
					<g>
						<path class="st0" d="M172.5,44.7h-0.4v-2.8h0.4V44.7z"/>
					</g>
				</g>
				<g>
					<g>
						<path class="st0" d="M174.5,44.7H174l-0.8-2.8h0.4l0.6,2.5h0l0.7-2.5h0.4L174.5,44.7z"/>
					</g>
				</g>
				<g>
					<g>
						<path class="st0" d="M176.4,44.7H176v-2.8h0.4V44.7z"/>
					</g>
				</g>
				<g>
					<g>
						<path class="st0" d="M178.9,41.8v0.3h-0.7v2.5h-0.4v-2.5h-0.7v-0.3H178.9z"/>
					</g>
				</g>
				<g>
					<g>
						<path class="st0" d="M179.6,44.7v-2.8h1.5v0.3h-1.1v0.9h1v0.3h-1v1h1.1v0.3H179.6z M180.7,41l-0.5,0.6h-0.3l0.3-0.6H180.7z"/>
					</g>
				</g>
			</g>
		</g>
		<path class="st0" d="M147.4,41.9c-1.8,0-3.2-1.4-3.2-3.1c0-1.7,1.5-3.1,3.2-3.1c0.3,0,0.6,0,0.8,0.1v-3c-0.3,0-0.6-0.1-0.8-0.1
			c-3.4,0-6.2,2.7-6.2,6c0,3.3,2.8,6,6.2,6c0.3,0,0.6,0,0.8-0.1v-3C148,41.9,147.7,41.9,147.4,41.9z"/>
	</g>
</g>
<rect x="0.1" class="st1" width="107.3" height="62"/>
<g>
	<g>
		<polygon class="st2" points="45.4,19.7 45.6,19.7 45.6,18.2 46,18.2 46,18 45,18 45,18.2 45.4,18.2 		"/>
		<polygon class="st2" points="47,18.9 47.7,18.9 47.7,19.7 48,19.7 48,18 47.7,18 47.7,18.7 47,18.7 47,18 46.7,18 46.7,19.7 
			47,19.7 		"/>
		<polygon class="st2" points="49.8,19.4 49.1,19.4 49.1,18.9 49.8,18.9 49.8,18.7 49.1,18.7 49.1,18.2 49.8,18.2 49.8,18 48.9,18 
			48.9,19.7 49.8,19.7 		"/>
		<path class="st2" d="M40.7,26.8h3.6l0.8,1.9h2.3l-4.1-9.9h-1.7l-4.1,9.9h2.3L40.7,26.8z M42.5,21.8L42.5,21.8L42.5,21.8l1.2,3.1
			h-2.4L42.5,21.8z"/>
		<path class="st2" d="M69.6,23.7c0.2-0.2,0.4-0.3,0.6-0.4c0.2-0.1,0.8-0.3,1.2,0c0.4,0.2,0.6,0.7,0.6,1.3v4.1h2.2v-4.2
			c0-1.6-0.6-2.2-0.9-2.5c-0.8-0.7-2.1-0.7-2.7-0.5c-0.1,0-0.6,0.2-1.1,0.6l-0.1-0.6h-2v7.2h2.2V23.7z"/>
		<path class="st2" d="M47.8,28.7H50v-5c0.2-0.2,0.4-0.3,0.6-0.4c0.2-0.1,0.9-0.3,1.3,0c0.3,0.3,0.4,1,0.4,1.2v4.2h2.2v-4.3
			c0-0.3,0-0.5-0.1-0.8c0.2-0.1,0.4-0.2,0.6-0.3c0.5-0.2,1.1-0.1,1.3,0c0.4,0.3,0.4,0.9,0.4,1.2v4.2h2.2v-4.3c0-0.8-0.1-1.8-0.8-2.4
			c-0.7-0.6-1.8-0.7-2-0.7c-1.4,0-2.4,0.7-2.4,0.7c-0.5-0.5-1.7-1-2.7-0.6c-0.1,0-0.6,0.2-1.1,0.6l-0.1-0.6h-2V28.7z"/>
		<path class="st2" d="M62.6,28.8c0.4,0,0.7-0.1,1.1-0.3c0.2-0.1,0.5-0.3,0.6-0.5l0.1,0.6h2v-7.2h-2.2v5c-0.2,0.1-0.4,0.3-0.6,0.4
			c-0.2,0.1-0.8,0.3-1.2,0.1c-0.5-0.2-0.6-1-0.6-1.4v-4.1h-2.2v4.3c0,0.8,0.1,1.7,0.7,2.3C60.9,28.6,61.8,28.9,62.6,28.8z"/>
		<path class="st2" d="M76.7,28.6c0.4,0.2,0.9,0.3,1.4,0.3c0.4,0,1-0.2,1.5-0.6l0.1,0.4h2v-9.9h-2.2v2.6c-0.4-0.1-0.7-0.1-1.1-0.1
			c-1.4,0-2.2,0.7-2.5,1C75.2,23,74.8,24,74.8,25C74.8,27.3,76.1,28.3,76.7,28.6z M77.1,24.2c0.2-0.4,0.6-1.1,1.5-1
			c0.3,0,0.5,0,0.8,0.2v3.2c-0.1,0.2-0.3,0.3-0.5,0.4c-0.8,0.3-1.7,0-1.9-1.3C76.9,25.1,76.9,24.6,77.1,24.2z"/>
		<path class="st2" d="M83.9,21c0.8,0,1.3-0.6,1.3-1.2c0-0.6-0.5-1.2-1.3-1.2c-0.8,0-1.3,0.6-1.3,1.2C82.6,20.5,83,21,83.9,21z"/>
		<rect x="82.8" y="21.5" class="st2" width="2.2" height="7.2"/>
		<rect x="37.6" y="30.3" class="st2" width="47.4" height="1.9"/>
		<path class="st2" d="M39.3,45.6c0.6,0,0.9,0.4,1,0.6h0.6c-0.2-0.5-0.7-1.1-1.6-1.1c-1,0-1.7,0.8-1.7,1.7c0,0.9,0.7,1.7,1.7,1.7
			c0.8,0,1.4-0.5,1.6-1.1h-0.6c-0.1,0.1-0.4,0.6-1,0.6c-0.7,0-1.2-0.6-1.2-1.3C38.1,46.2,38.6,45.6,39.3,45.6z"/>
		<polygon class="st2" points="44.5,46.6 43.1,46.6 43.1,45.2 42.5,45.2 42.5,48.5 43.1,48.5 43.1,47 44.5,47 44.5,48.5 45,48.5 
			45,45.2 44.5,45.2 		"/>
		<path class="st2" d="M48.1,45.2l-1.4,3.3h0.6l0.3-0.8H49l0.3,0.8h0.6l-1.4-3.3H48.1z M47.7,47.3l0.6-1.5l0.6,1.5H47.7z"/>
		<polygon class="st2" points="53.4,47.8 52.3,45.2 51.6,45.2 51.6,48.5 52.1,48.5 52.1,45.7 53.2,48.5 53.5,48.5 54.6,45.7 
			54.6,48.5 55.1,48.5 55.1,45.2 54.4,45.2 		"/>
		<path class="st2" d="M58.7,45.4c-0.2-0.2-0.4-0.2-0.9-0.2h-1v3.3h0.5v-1.2h0.5c0.5,0,0.7-0.1,0.9-0.2c0.2-0.2,0.3-0.5,0.3-0.8
			C59.1,45.9,58.9,45.6,58.7,45.4z M58.3,46.7c-0.1,0.1-0.3,0.1-0.5,0.1h-0.5v-1.2h0.4c0.2,0,0.4,0,0.5,0.1c0.1,0.1,0.2,0.3,0.2,0.5
			C58.6,46.4,58.5,46.6,58.3,46.7z"/>
		<rect x="60.7" y="45.2" class="st2" width="0.5" height="3.3"/>
		<path class="st2" d="M64.6,45.1c-0.9,0-1.7,0.7-1.7,1.8v0c0,0.9,0.7,1.7,1.7,1.7c1,0,1.8-0.8,1.8-1.7
			C66.3,45.9,65.6,45.1,64.6,45.1z M64.6,48.1c-0.7,0-1.2-0.6-1.2-1.3v0c0-0.7,0.5-1.3,1.2-1.3c0.7,0,1.2,0.6,1.2,1.3
			C65.8,47.5,65.3,48.1,64.6,48.1z"/>
		<polygon class="st2" points="70.2,47.7 68.5,45.2 68,45.2 68,48.5 68.5,48.5 68.5,46 70.3,48.5 70.7,48.5 70.7,45.2 70.2,45.2 		
			"/>
		<path class="st2" d="M73.8,46.6C73.3,46.4,73,46.3,73,46c0-0.3,0.2-0.5,0.5-0.5c0.4,0,0.5,0.3,0.5,0.5h0.5c0-0.7-0.6-0.9-1-0.9
			c-0.5,0-1.1,0.3-1.1,1c0,0.6,0.6,0.8,0.8,0.9c0.4,0.2,0.7,0.2,0.7,0.6c0,0.3-0.3,0.5-0.6,0.5c-0.2,0-0.5-0.1-0.6-0.6h-0.5
			c0,0.6,0.4,1.1,1.1,1.1c0.7,0,1.1-0.5,1.1-1C74.6,47,74.2,46.8,73.8,46.6z"/>
		<polygon class="st2" points="78.2,46.6 76.8,46.6 76.8,45.2 76.3,45.2 76.3,48.5 76.8,48.5 76.8,47 78.2,47 78.2,48.5 78.8,48.5 
			78.8,45.2 78.2,45.2 		"/>
		<rect x="80.5" y="45.2" class="st2" width="0.5" height="3.3"/>
		<path class="st2" d="M84.6,45.4c-0.2-0.2-0.4-0.2-0.9-0.2h-1v3.3h0.5v-1.2h0.5c0.5,0,0.7-0.1,0.9-0.2c0.2-0.2,0.3-0.5,0.3-0.8
			C84.9,45.9,84.8,45.6,84.6,45.4z M84.2,46.7c-0.1,0.1-0.3,0.1-0.5,0.1h-0.5v-1.2h0.4c0.2,0,0.4,0,0.5,0.1c0.1,0.1,0.2,0.3,0.2,0.5
			C84.4,46.4,84.3,46.6,84.2,46.7z"/>
		<rect x="59.4" y="34.5" class="st2" width="1.8" height="8.9"/>
		<path class="st2" d="M83.1,43.4h1.8v-5.6c0-2-0.8-4.2-3.9-4.2c-1.7,0-2.8,0.8-3.2,1.8v-1.5h-1.7v9.5H78v-5.3
			c0-1.6,0.8-2.8,2.6-2.8c1.9,0,2.5,1.2,2.5,2.9V43.4z"/>
		<path class="st2" d="M45.4,40.5c-0.5,1-1.5,1.6-2.8,1.6c-1.4,0-3.1-1-3.2-2.9h8.1c0.2-1.6-0.3-3.1-1.4-4.2
			c-0.9-0.9-2.2-1.4-3.5-1.4c-2.9,0-5,2.3-5,5.1c0,2.5,1.9,5,5,5c1,0,1.9-0.3,2.7-0.8c0.8-0.5,1.5-1.3,1.9-2.4H45.4z M42.6,35.1
			c1.8,0,3.1,1.4,3.2,2.6h-6.3C39.5,36.5,40.8,35.1,42.6,35.1z"/>
		<path class="st2" d="M73.4,43.4v-9.5h-1.8v1.7c-0.4-0.9-1.6-2-3.5-2c-2.8,0-4.9,2.1-4.9,5c0,2.7,1.8,5,4.9,5
			c1.5,0,2.9-0.7,3.5-1.9v1.7H73.4z M71.2,40.1c-0.5,1.1-1.5,1.9-3,1.9C66,42,65,40.1,65,38.6v0c0-1.8,1.3-3.4,3.3-3.4
			c1.5,0,2.6,0.9,3,2c0.2,0.4,0.3,0.9,0.3,1.4C71.6,39.1,71.5,39.6,71.2,40.1z"/>
		<polygon class="st2" points="53.8,43.4 57.4,33.8 55.5,33.8 52.8,41.1 50.2,33.8 48.3,33.8 51.9,43.4 		"/>
		<rect x="59.4" y="32.8" class="st2" width="1.8" height="1"/>
	</g>
	<g>
		<path class="st2" d="M33.8,41.6c0-0.7,0-0.8-0.1-1c-3.9-4.8-6.5-11.8-6-13.8c0.9,2.7,2.1,5.1,3.6,7.1c0-0.6-0.2-2.1-1-4.6
			c-0.7-2.2-1.2-5.2-0.7-6.9c0.4,2.1,1.1,5.8,2.6,8c0-0.9,0-3-0.2-5.3c-0.2-1.6-0.1-4.6,0.6-5.8c0.1,2.9,0.4,5.2,0.8,7.2
			c0.4-1.3,1.6-10.3,1.7-14.7l-12.6,0c0,1.5,0.6,8.4,1.8,12.9C25.9,31.4,29.4,37.5,33.8,41.6z"/>
		<path class="st2" d="M26,40.1c-0.1,0.5-0.3,1.2-0.3,1.6l1.5,0l-0.3-0.3C26.3,41,26.1,40.5,26,40.1z"/>
		<path class="st2" d="M27.1,41.3l0.2,0.4l2.6,0c-1.8-1.4-2.9-3-3.2-3.7C26.3,39.1,26.8,40.6,27.1,41.3z"/>
		<path class="st2" d="M24.8,42.6V44h9.6v-1.4c0-0.1-0.1-0.2-0.2-0.2H25C24.9,42.4,24.8,42.5,24.8,42.6z"/>
		<path class="st2" d="M24.4,44.9v1.4h10.5v-1.4c0-0.1-0.1-0.2-0.2-0.2H24.5C24.4,44.7,24.4,44.8,24.4,44.9z"/>
		<path class="st2" d="M35.2,47H24.1c-0.1,0-0.2,0.1-0.2,0.2v1.4h11.4v-1.4C35.4,47.1,35.3,47,35.2,47z"/>
		<path class="st2" d="M33,41.7c-3-2.3-5.2-5.5-5.9-6.5c-0.1,2.7,2.5,5.9,3.1,6.5L33,41.7z"/>
	</g>
</g>
</svg>
