<?xml version="1.0" encoding="utf-8"?>
<!-- Generator: Adobe Illustrator 26.2.1, SVG Export Plug-In . SVG Version: 6.00 Build 0)  -->
<svg version="1.1" id="Calque_1" xmlns="http://www.w3.org/2000/svg" xmlns:xlink="http://www.w3.org/1999/xlink" x="0px" y="0px"
	 viewBox="0 0 400 200" style="enable-background:new 0 0 400 200;" xml:space="preserve">
<style type="text/css">
	.st0{fill:#B40F69;}
	.st1{fill:#B40F69;stroke:#B40F69;stroke-width:0.6933;stroke-miterlimit:10;}
	.st2{fill:#FFFFFF;}
</style>
<g>
	<g>
		<polygon class="st0" points="259.9,77.6 253.4,77.6 258.5,91.5 250.8,91.5 249,96.4 260.3,96.4 263.3,104.6 269.7,104.6 		"/>
		<polygon class="st0" points="319.6,77.6 317.3,83.7 328.8,83.7 328.8,95.7 335.3,93.3 335.3,77.6 335.3,77.6 		"/>
		<polygon class="st0" points="266.9,77.6 292.3,77.6 290.1,83.7 281.2,83.7 281.2,104.6 274.6,104.6 274.6,83.7 266.9,83.7 		"/>
		<g>
			<g>
				<g>
					<g>
						<path class="st0" d="M328.7,114.1l1.8-6.6h1.8l1.8,6.6h-1.4l-0.4-1.5h-1.9l-0.4,1.5H328.7z M331.4,108.8L331.4,108.8l-0.6,2.8
							h1.3L331.4,108.8z"/>
					</g>
				</g>
				<g>
					<g>
						<path class="st0" d="M335.6,107.6h0.8v4.2c0,1.4,0.4,1.8,1.2,1.8c0.8,0,1.2-0.4,1.2-1.8v-4.2h0.8v4.2c0,1.8-0.7,2.5-2.1,2.5
							c-1.4,0-2.1-0.7-2.1-2.5V107.6z"/>
					</g>
				</g>
				<g>
					<g>
						<path class="st0" d="M345.5,107.6v0.7h-1.7v5.8H343v-5.8h-1.7v-0.7H345.5z"/>
					</g>
				</g>
				<g>
					<g>
						<path class="st0" d="M347,111.7v-2.2c0-1.3,0.7-2.1,2.1-2.1c1.4,0,2.1,0.8,2.1,2.1v2.2c0,1.8-0.7,2.5-2.1,2.5
							C347.7,114.3,347,113.6,347,111.7z M350.3,111.8v-2.2c0-1.4-0.9-1.4-1.2-1.4c-0.3,0-1.2,0-1.2,1.4v2.2c0,1.4,0.4,1.8,1.2,1.8
							C349.9,113.6,350.3,113.2,350.3,111.8z"/>
					</g>
				</g>
				<g>
					<g>
						<path class="st0" d="M354.1,111.1v3h-0.8v-6.6h2.3c1.2,0,1.6,0.8,1.6,1.6c0,0.8-0.4,1.4-1.2,1.5v0c0.8,0.1,1,0.4,1.1,1.7
							c0,0.3,0.1,1.3,0.2,1.7h-0.9c-0.2-0.5-0.2-1.3-0.3-2.2c-0.1-0.8-0.7-0.8-1-0.8H354.1z M354.1,110.4h1.3c0.6,0,0.9-0.5,0.9-1.1
							c0-0.5-0.2-1-0.9-1h-1.3V110.4z"/>
					</g>
				</g>
				<g>
					<g>
						<path class="st0" d="M359.9,114.1h-0.8v-6.6h0.8V114.1z"/>
					</g>
				</g>
				<g>
					<g>
						<path class="st0" d="M362.9,112.2v0.2c0,0.9,0.6,1.2,1.1,1.2c0.7,0,1.2-0.3,1.2-1.1c0-1.5-2.9-1.3-2.9-3.3
							c0-1.2,0.8-1.8,1.9-1.8c1.2,0,1.9,0.6,1.8,1.9H365c0-0.7-0.2-1.2-1-1.2c-0.5,0-1,0.3-1,1c0,1.4,2.9,1.2,2.9,3.3
							c0,1.4-1,1.8-2,1.8c-1.9,0-1.9-1.5-1.9-2.1H362.9z"/>
					</g>
				</g>
				<g>
					<g>
						<path class="st0" d="M367.9,114.1v-6.6h3.4v0.7h-2.5v2.1h2.4v0.7h-2.4v2.3h2.6v0.7H367.9z"/>
					</g>
				</g>
			</g>
		</g>
		<g>
			<g>
				<g>
					<g>
						<path class="st0" d="M333.2,119.4v1.1h-1.5v5.5h-1.4v-5.5h-1.5v-1.1H333.2z"/>
					</g>
				</g>
				<g>
					<g>
						<path class="st0" d="M334.6,123.5v-2.2c0-1.3,0.7-2.1,2.1-2.1c1.4,0,2.1,0.8,2.1,2.1v2.2c0,1.8-0.7,2.5-2.1,2.5
							C335.3,126.1,334.6,125.3,334.6,123.5z M337.9,123.6v-2.2c0-1.4-0.9-1.4-1.2-1.4c-0.3,0-1.2,0-1.2,1.4v2.2
							c0,1.4,0.4,1.8,1.2,1.8C337.5,125.4,337.9,125,337.9,123.6z"/>
					</g>
				</g>
				<g>
					<g>
						<path class="st0" d="M340.9,119.4h0.8v4.2c0,1.4,0.4,1.8,1.2,1.8c0.8,0,1.2-0.4,1.2-1.8v-4.2h0.8v4.2c0,1.8-0.7,2.5-2.1,2.5
							c-1.4,0-2.1-0.7-2.1-2.5V119.4z"/>
					</g>
				</g>
				<g>
					<g>
						<path class="st0" d="M350.8,119.4v0.7h-1.7v5.8h-0.8v-5.8h-1.7v-0.7H350.8z"/>
					</g>
				</g>
				<g>
					<g>
						<path class="st0" d="M352.3,125.9v-6.6h3.4v0.7h-2.5v2.1h2.4v0.7h-2.4v2.3h2.6v0.7H352.3z"/>
					</g>
				</g>
			</g>
		</g>
		<g>
			<g>
				<g>
					<g>
						<path class="st0" d="M308.9,134.6c0-1.7,0-3.4,2.3-3.4c1.4,0,2,0.8,1.9,2.2h-1.3c0-0.9-0.2-1.2-0.6-1.2
							c-0.8,0-0.9,0.7-0.9,2.4c0,1.7,0.1,2.4,0.9,2.4c0.6,0,0.6-0.8,0.6-1.3h1.4c0,1.8-0.7,2.3-2,2.3
							C308.9,138,308.9,136.3,308.9,134.6z"/>
					</g>
				</g>
				<g>
					<g>
						<path class="st0" d="M315.6,134.9v3h-0.8v-6.6h2.3c1.2,0,1.6,0.8,1.6,1.6c0,0.8-0.4,1.4-1.2,1.5v0c0.8,0.1,1,0.4,1.1,1.7
							c0,0.3,0.1,1.3,0.2,1.7h-0.9c-0.2-0.5-0.2-1.3-0.3-2.2c-0.1-0.8-0.7-0.8-1-0.8H315.6z M315.6,134.1h1.3c0.6,0,0.9-0.5,0.9-1.1
							c0-0.5-0.2-1-0.9-1h-1.3V134.1z"/>
					</g>
				</g>
				<g>
					<g>
						<path class="st0" d="M320.5,137.9v-6.6h3.4v0.7h-2.5v2.1h2.4v0.7h-2.4v2.3h2.6v0.7H320.5z M323.1,129.3l-1.2,1.3h-0.6l0.8-1.3
							H323.1z"/>
					</g>
				</g>
				<g>
					<g>
						<path class="st0" d="M327.2,131.3h1.1l2.1,6.6h-0.9l-0.5-1.6h-2.5l-0.5,1.6h-0.8L327.2,131.3z M327.7,132.1L327.7,132.1
							l-1,3.5h2.1L327.7,132.1z"/>
					</g>
				</g>
				<g>
					<g>
						<path class="st0" d="M335,131.3v0.7h-1.7v5.8h-0.8V132h-1.7v-0.7H335z"/>
					</g>
				</g>
				<g>
					<g>
						<path class="st0" d="M337.5,137.9h-0.8v-6.6h0.8V137.9z"/>
					</g>
				</g>
				<g>
					<g>
						<path class="st0" d="M342,137.9h-1l-1.9-6.6h0.9l1.5,5.8h0l1.5-5.8h0.9L342,137.9z"/>
					</g>
				</g>
				<g>
					<g>
						<path class="st0" d="M346.4,137.9h-0.8v-6.6h0.8V137.9z"/>
					</g>
				</g>
				<g>
					<g>
						<path class="st0" d="M352.3,131.3v0.7h-1.7v5.8h-0.8V132H348v-0.7H352.3z"/>
					</g>
				</g>
				<g>
					<g>
						<path class="st0" d="M353.9,137.9v-6.6h3.4v0.7h-2.5v2.1h2.4v0.7h-2.4v2.3h2.6v0.7H353.9z M356.5,129.3l-1.2,1.3h-0.6l0.8-1.3
							H356.5z"/>
					</g>
				</g>
			</g>
		</g>
		<path class="st0" d="M279.3,131.4c-4.2,0-7.5-3.2-7.5-7.2c0-4,3.4-7.2,7.5-7.2c0.7,0,1.3,0.1,1.9,0.2v-6.9
			c-0.6-0.1-1.3-0.1-1.9-0.1c-7.9,0-14.4,6.3-14.4,14c0,7.7,6.4,14,14.4,14c0.7,0,1.3-0.1,1.9-0.1v-6.9
			C280.6,131.3,280,131.4,279.3,131.4z"/>
	</g>
</g>
<g>
	<rect class="st1" width="200" height="200"/>
	<g>
		<g>
			<polygon class="st2" points="80.5,75.7 81.1,75.7 81.1,72.3 82,72.3 82,71.8 79.6,71.8 79.6,72.3 80.5,72.3 			"/>
			<polygon class="st2" points="84.3,74 85.9,74 85.9,75.7 86.6,75.7 86.6,71.8 85.9,71.8 85.9,73.4 84.3,73.4 84.3,71.8 83.7,71.8 
				83.7,75.7 84.3,75.7 			"/>
			<polygon class="st2" points="90.8,75.1 89.2,75.1 89.2,74 90.7,74 90.7,73.4 89.2,73.4 89.2,72.3 90.8,72.3 90.8,71.8 88.6,71.8 
				88.6,75.7 90.8,75.7 			"/>
			<path class="st2" d="M69.7,92.1h8.5l1.9,4.4h5.4l-9.5-22.9h-3.9l-9.5,22.9h5.4L69.7,92.1z M73.9,80.6L73.9,80.6L73.9,80.6
				l2.7,7.1h-5.5L73.9,80.6z"/>
			<path class="st2" d="M136.8,85c0.4-0.4,0.9-0.7,1.4-1c0.5-0.3,1.8-0.7,2.9-0.1c0.9,0.5,1.3,1.7,1.3,3.1v9.5h5.1v-9.8
				c0-3.6-1.3-5.2-2.1-5.9c-1.9-1.7-4.9-1.6-6.3-1.1c-0.2,0.1-1.5,0.5-2.5,1.5l-0.2-1.4h-4.7v16.7h5.1V85z"/>
			<path class="st2" d="M86.1,96.5h5.1V85c0.4-0.4,0.9-0.7,1.4-0.9c0.6-0.3,2-0.8,3,0.1c0.8,0.7,0.8,2.2,0.8,2.7v9.8h5.1v-10
				c0-0.6-0.1-1.2-0.2-1.8c0.5-0.3,1-0.5,1.5-0.8c1.2-0.5,2.5-0.3,2.9,0c0.9,0.7,1,2.1,1,2.8v9.8h5.1v-10c0-1.8-0.3-4.1-1.9-5.6
				c-1.7-1.5-4.2-1.5-4.7-1.6c-3.1,0-5.5,1.7-5.5,1.7c-1.1-1.2-3.9-2.2-6.2-1.4c-0.2,0.1-1.5,0.5-2.5,1.5l-0.2-1.4h-4.7V96.5z"/>
			<path class="st2" d="M120.5,96.9c0.9-0.1,1.7-0.3,2.5-0.7c0.5-0.3,1.1-0.6,1.5-1.1l0.2,1.4h4.7V79.8h-5.1v11.6
				c-0.4,0.3-0.9,0.6-1.3,0.8c-0.5,0.3-1.8,0.6-2.9,0.2c-1.2-0.4-1.3-2.3-1.3-3.1v-9.5h-5.1v9.9c0,1.9,0.3,3.9,1.6,5.3
				C116.6,96.5,118.6,97,120.5,96.9z"/>
			<path class="st2" d="M153.1,96.3c1,0.5,2.1,0.7,3.2,0.6c1-0.1,2.4-0.5,3.4-1.4l0.2,1h4.7V73.7h-5.1v6.1c-0.8-0.2-1.7-0.3-2.5-0.3
				c-3.3,0-5.1,1.6-5.8,2.3c-1.6,1.6-2.5,3.9-2.5,6.2C148.6,93.4,151.6,95.6,153.1,96.3z M154,86.1c0.4-1,1.4-2.4,3.6-2.4
				c0.6,0,1.2,0.1,1.9,0.3v7.5c-0.3,0.4-0.8,0.7-1.2,0.9c-1.8,0.7-4-0.1-4.5-3.1C153.6,88.2,153.6,87.2,154,86.1z"/>
			<path class="st2" d="M169.7,78.8c2,0,3-1.3,3-2.7c0-1.4-1.1-2.7-3-2.7c-1.9,0-3,1.3-3,2.7C166.7,77.5,167.8,78.8,169.7,78.8z"/>
			<rect x="167.2" y="79.8" class="st2" width="5.1" height="16.7"/>
			<rect x="62.4" y="100.2" class="st2" width="109.9" height="4.3"/>
			<path class="st2" d="M66.5,135.7c1.4,0,2.1,1,2.4,1.5h1.3c-0.4-1.1-1.6-2.5-3.7-2.5c-2.4,0-4,1.9-4,4c0,2.2,1.7,4,4.1,4
				c1.8,0,3.2-1.1,3.7-2.5h-1.3c-0.2,0.3-0.9,1.4-2.4,1.4c-1.6,0-2.8-1.3-2.8-2.9C63.7,137,64.8,135.7,66.5,135.7z"/>
			<polygon class="st2" points="78.5,138 75.1,138 75.1,134.8 73.9,134.8 73.9,142.5 75.1,142.5 75.1,139.1 78.5,139.1 78.5,142.5 
				79.7,142.5 79.7,134.8 78.5,134.8 			"/>
			<path class="st2" d="M86.8,134.8l-3.2,7.8h1.3l0.7-1.8H89l0.7,1.8H91l-3.1-7.8H86.8z M86,139.7l1.3-3.5l1.3,3.5H86z"/>
			<polygon class="st2" points="99,140.8 96.6,134.8 94.9,134.8 94.9,142.5 96.1,142.5 96,136 98.6,142.5 99.4,142.5 102,136 
				102,142.5 103.1,142.5 103.1,134.8 101.4,134.8 			"/>
			<path class="st2" d="M111.4,135.3c-0.5-0.4-1-0.5-2.2-0.5H107v7.8h1.2v-2.8h1.1c1.1,0,1.6-0.2,2.1-0.6c0.5-0.4,0.8-1.2,0.8-1.9
				C112.2,136.4,111.9,135.7,111.4,135.3z M110.5,138.3c-0.3,0.2-0.7,0.3-1.2,0.3h-1.1v-2.7h1c0.5,0,0.9,0,1.2,0.3
				c0.3,0.2,0.6,0.6,0.6,1.1C111.1,137.7,110.8,138.1,110.5,138.3z"/>
			<rect x="116" y="134.8" class="st2" width="1.2" height="7.8"/>
			<path class="st2" d="M125,134.6c-2.2,0-4.1,1.6-4.1,4.1v0c0,2.1,1.7,4,4,4c2.3,0,4.1-1.8,4.1-4
				C129.1,136.4,127.3,134.6,125,134.6z M125,141.6c-1.7,0-2.8-1.3-2.8-2.9v0c0-1.6,1.2-2.9,2.8-2.9c1.7,0,2.8,1.4,2.8,2.9
				C127.8,140.1,126.7,141.6,125,141.6z"/>
			<polygon class="st2" points="138.1,140.7 134.1,134.8 132.9,134.8 132.9,142.5 134.1,142.5 134.1,136.6 138.2,142.5 139.3,142.5 
				139.3,134.8 138.1,134.8 			"/>
			<path class="st2" d="M146.4,138.1c-1.2-0.5-1.8-0.7-1.8-1.4c0-0.7,0.5-1.1,1.2-1.1c0.9,0,1.1,0.7,1.2,1.1h1.2
				c-0.1-1.6-1.3-2.1-2.3-2.1c-1.2,0-2.5,0.8-2.4,2.2c0,1.5,1.4,1.9,2,2.1c1,0.4,1.7,0.6,1.7,1.4c0,0.7-0.6,1.2-1.3,1.2
				c-0.4,0-1.2-0.2-1.3-1.4h-1.2c0,1.5,1,2.4,2.5,2.4c1.7,0,2.5-1.1,2.5-2.3C148.2,139,147.3,138.6,146.4,138.1z"/>
			<polygon class="st2" points="156.7,138 153.4,138 153.4,134.8 152.1,134.8 152.1,142.5 153.4,142.5 153.4,139.1 156.7,139.1 
				156.7,142.5 157.9,142.5 157.9,134.8 156.7,134.8 			"/>
			<rect x="161.8" y="134.8" class="st2" width="1.2" height="7.8"/>
			<path class="st2" d="M171.3,135.3c-0.5-0.4-1-0.5-2.2-0.5H167v7.8h1.2v-2.8h1.1c1.1,0,1.6-0.2,2.1-0.6c0.5-0.4,0.8-1.2,0.8-1.9
				C172.2,136.4,171.9,135.7,171.3,135.3z M170.5,138.3c-0.3,0.2-0.7,0.3-1.2,0.3h-1.1v-2.7h1c0.5,0,0.9,0,1.2,0.3
				c0.3,0.2,0.6,0.6,0.6,1.1C171,137.7,170.8,138.1,170.5,138.3z"/>
			<rect x="113" y="110" class="st2" width="4.2" height="20.6"/>
			<path class="st2" d="M167.9,130.6h4.3v-13c0-4.6-1.9-9.7-8.9-9.8c-3.9,0-6.4,1.8-7.5,4.1v-3.4h-4v22.1h4.2v-12.3
				c0-3.8,1.9-6.4,6.1-6.5c4.3,0,5.8,2.8,5.8,6.8V130.6z"/>
			<path class="st2" d="M80.5,123.9c-1.2,2.3-3.4,3.7-6.4,3.7c-3.3,0-7.2-2.3-7.4-6.7h18.9c0.4-3.7-0.7-7.1-3.3-9.8
				c-2.1-2.1-5-3.2-8.2-3.2c-6.7,0-11.7,5.4-11.7,11.7c0,5.8,4.5,11.7,11.7,11.7c2.2,0,4.4-0.6,6.3-1.9c1.9-1.2,3.4-3,4.5-5.5H80.5z
				 M74.1,111.5c4.2-0.1,7.1,3.2,7.3,6.1H66.8C67,114.6,69.8,111.5,74.1,111.5z"/>
			<path class="st2" d="M145.4,130.6v-22.1h-4.2v3.9c-1-2.1-3.8-4.5-8.2-4.5c-6.4,0-11.3,5-11.3,11.7c0,6.2,4.2,11.7,11.3,11.7
				c3.5,0,6.7-1.5,8.2-4.5v3.9H145.4z M140.5,122.9c-1.1,2.5-3.5,4.4-6.9,4.4c-5.4,0-7.7-4.4-7.7-7.7v0c0-4.1,3-7.8,7.6-7.8
				c3.5,0,6,2,7.1,4.5c0.5,1,0.7,2.2,0.7,3.3C141.2,120.8,141,121.9,140.5,122.9z"/>
			<polygon class="st2" points="99.9,130.6 108.4,108.5 103.9,108.5 97.8,125.3 91.7,108.5 87.2,108.5 95.7,130.6 			"/>
			<rect x="113" y="106.1" class="st2" width="4.2" height="2.4"/>
		</g>
		<g>
			<path class="st2" d="M53.6,126.4c0-1.6,0-1.8-0.3-2.4c-9.1-11.2-15-27.4-14-32c2.2,6.3,5,11.8,8.3,16.4
				c-0.1-1.5-0.5-4.8-2.2-10.6c-1.6-5.2-2.7-11.9-1.6-16.1c0.8,4.9,2.6,13.4,6,18.5c0-2,0-7-0.5-12.2c-0.4-3.7-0.2-10.6,1.4-13.3
				c0.2,6.7,0.8,12.1,1.9,16.6c0.9-2.9,3.8-23.8,3.9-34.1l-29.3,0c0.1,3.5,1.3,19.5,4.1,30C35.4,102.9,43.5,116.9,53.6,126.4z"/>
			<path class="st2" d="M35.5,123.1c-0.3,1.1-0.7,2.7-0.8,3.6l3.6,0l-0.7-0.6C36.4,125.1,35.8,124,35.5,123.1z"/>
			<path class="st2" d="M38.1,125.9l0.4,0.8l6.1,0c-4.1-3.3-6.7-7-7.4-8.7C36.2,120.8,37.3,124.1,38.1,125.9z"/>
			<path class="st2" d="M32.8,128.8v3.3h22.3v-3.3c0-0.2-0.2-0.4-0.4-0.4H33.2C33,128.4,32.8,128.6,32.8,128.8z"/>
			<path class="st2" d="M31.8,134.1v3.3h24.4v-3.3c0-0.2-0.2-0.4-0.4-0.4H32.2C32,133.7,31.8,133.9,31.8,134.1z"/>
			<path class="st2" d="M56.9,139H31.1c-0.2,0-0.4,0.2-0.4,0.4v3.3h26.5v-3.3C57.3,139.1,57.1,139,56.9,139z"/>
			<path class="st2" d="M51.8,126.8c-7-5.3-12.1-12.7-13.6-15.2c-0.3,6.2,5.9,13.7,7.2,15.2L51.8,126.8z"/>
		</g>
	</g>
</g>
</svg>
